<?xml version="1.0" encoding="utf-8"?>
<!-- Generator: Adobe Illustrator 14.0.0, SVG Export Plug-In . SVG Version: 6.00 Build 43363)  -->
<!DOCTYPE svg PUBLIC "-//W3C//DTD SVG 1.1//EN" "http://www.w3.org/Graphics/SVG/1.1/DTD/svg11.dtd">
<svg version="1.1"
	 id="svg2" inkscape:version="0.48.4 r9939" sodipodi:docname="New document 1" xmlns:dc="http://purl.org/dc/elements/1.1/" xmlns:cc="http://creativecommons.org/ns#" xmlns:rdf="http://www.w3.org/1999/02/22-rdf-syntax-ns#" xmlns:svg="http://www.w3.org/2000/svg" xmlns:sodipodi="http://sodipodi.sourceforge.net/DTD/sodipodi-0.dtd" xmlns:inkscape="http://www.inkscape.org/namespaces/inkscape"
	 xmlns="http://www.w3.org/2000/svg" xmlns:xlink="http://www.w3.org/1999/xlink" x="0px" y="0px" width="540px" height="185.396px"
	 viewBox="117 322.07 540 185.396" enable-background="new 117 322.07 540 185.396" xml:space="preserve">
<sodipodi:namedview  id="base" inkscape:window-maximized="1" showgrid="false" inkscape:cy="681.00574" inkscape:cx="296.31012" inkscape:zoom="1.8347656" borderopacity="1.0" bordercolor="#666666" pagecolor="#ffffff" inkscape:window-y="-8" inkscape:window-x="-8" inkscape:window-height="838" inkscape:window-width="1600" inkscape:current-layer="layer1" inkscape:document-units="px" inkscape:pageshadow="2" inkscape:pageopacity="0.0">
	</sodipodi:namedview>
<g>
	<defs>
		<rect id="SVGID_1_" x="134.723" y="322.07" width="150.985" height="185.396"/>
	</defs>
	<clipPath id="SVGID_2_">
		<use xlink:href="#SVGID_1_"  overflow="visible"/>
	</clipPath>
	<g clip-path="url(#SVGID_2_)">
		<defs>
			<rect id="SVGID_3_" x="134.723" y="322.07" width="150.985" height="185.396"/>
		</defs>
		<clipPath id="SVGID_4_">
			<use xlink:href="#SVGID_3_"  overflow="visible"/>
		</clipPath>
		<defs>
			<filter id="Adobe_OpacityMaskFilter" filterUnits="userSpaceOnUse" x="146.056" y="332.531" width="127.857" height="172.898">
				<feColorMatrix  type="matrix" values="1 0 0 0 0  0 1 0 0 0  0 0 1 0 0  0 0 0 1 0"/>
			</filter>
		</defs>
		<mask maskUnits="userSpaceOnUse" x="146.056" y="332.531" width="127.857" height="172.898" id="SVGID_5_">
			<g filter="url(#Adobe_OpacityMaskFilter)">
				<g>
					<defs>
						<rect id="SVGID_6_" x="134.723" y="322.07" width="151.104" height="185.975"/>
					</defs>
					<clipPath id="SVGID_7_" clip-path="url(#SVGID_4_)">
						<use xlink:href="#SVGID_6_"  overflow="visible"/>
					</clipPath>
					<g transform="matrix(1 0 0 1 -8.605768e-006 -9.181997e-006)" clip-path="url(#SVGID_7_)">
						
							<image overflow="visible" width="520" height="640" xlink:href="9667FC4A.jpg"  transform="matrix(0.2906 0 0 0.2906 134.7234 322.0696)">
						</image>
					</g>
				</g>
			</g>
		</mask>
		<g clip-path="url(#SVGID_4_)" mask="url(#SVGID_5_)">
			<g>
				<defs>
					<rect id="SVGID_8_" x="146.056" y="332.531" width="127.857" height="172.898"/>
				</defs>
				<clipPath id="SVGID_9_">
					<use xlink:href="#SVGID_8_"  overflow="visible"/>
				</clipPath>
				
					<rect x="146.056" y="332.531" display="none" opacity="0.85" clip-path="url(#SVGID_9_)" fill="#1D1D1B" width="127.857" height="172.898"/>
			</g>
		</g>
		<path clip-path="url(#SVGID_4_)" fill="#990033" d="M184.268,334.513l-34.974,64.011c0,0-4.95,12.208,6.929,19.468
			c11.878,7.259,29.644,12.503,35.635,16.497c0,0,5.609,1.979,4.289,6.93c-1.322,4.958-26.726,48.171-26.726,48.171l13.198,6.6
			l25.736-47.183c0,0,11.149-15.271-3.629-23.096c-11.737-6.215-36.625-16.828-36.625-16.828s-6.27-3.959-2.969-8.579
			c3.299-4.62,32.996-60.381,32.996-60.381L184.268,334.513z"/>
		<path clip-path="url(#SVGID_4_)" fill="none" stroke="#000000" stroke-width="1.354" d="M184.268,334.513l-34.974,64.011
			c0,0-4.95,12.208,6.929,19.468c11.878,7.259,29.644,12.503,35.635,16.497c0,0,5.609,1.979,4.289,6.93
			c-1.322,4.958-26.726,48.171-26.726,48.171l13.198,6.6l25.736-47.183c0,0,11.149-15.271-3.629-23.096
			c-11.737-6.215-36.625-16.828-36.625-16.828s-6.27-3.959-2.969-8.579c3.299-4.62,32.996-60.381,32.996-60.381L184.268,334.513z"/>
	</g>
	<polygon clip-path="url(#SVGID_2_)" fill="#990033" points="207.916,336.493 175.251,397.204 187.789,403.474 220.784,342.433 	"/>
	<polygon clip-path="url(#SVGID_2_)" fill="none" stroke="#000000" stroke-width="1.354" points="207.916,336.493 175.251,397.204 
		187.789,403.474 220.784,342.433 	"/>
	<polygon clip-path="url(#SVGID_2_)" fill="#990033" points="229.858,337.519 197.192,398.23 209.73,404.5 242.726,343.458 	"/>
	<polygon clip-path="url(#SVGID_2_)" fill="none" stroke="#000000" stroke-width="1.354" points="229.858,337.519 197.192,398.23 
		209.73,404.5 242.726,343.458 	"/>
	<polygon clip-path="url(#SVGID_2_)" fill="#990033" points="251.851,339.308 264.719,344.918 237.663,395.73 248.881,396.39 
		242.942,408.598 230.404,408.598 217.536,401.67 	"/>
	<polygon clip-path="url(#SVGID_2_)" fill="none" stroke="#000000" stroke-width="1.354" points="251.851,339.308 264.719,344.918 
		237.663,395.73 248.881,396.39 242.942,408.598 230.404,408.598 217.536,401.67 	"/>
</g>
<g>
	<g>
		<defs>
			<rect id="SVGID_10_" x="243.074" y="403.135" width="432.627" height="69.17"/>
		</defs>
		<clipPath id="SVGID_11_">
			<use xlink:href="#SVGID_10_"  overflow="visible"/>
		</clipPath>
		<g clip-path="url(#SVGID_11_)">
			<path fill="#1D1D1B" d="M273.875,455.934l2.486,0.347c-0.786,2.169-1.931,3.81-3.435,4.92c-1.503,1.11-3.19,1.666-5.062,1.666
				c-2.281,0-4.09-0.696-5.427-2.088c-1.337-1.393-2.005-3.388-2.005-5.984c0-3.384,1.016-6.182,3.05-8.395
				c1.811-1.974,4.062-2.96,6.753-2.96c1.991,0,3.603,0.533,4.838,1.602c1.235,1.068,1.95,2.504,2.147,4.305l-2.345,0.219
				c-0.248-1.359-0.759-2.374-1.532-3.045c-0.773-0.67-1.771-1.006-2.992-1.006c-2.299,0-4.157,1.021-5.575,3.064
				c-1.23,1.759-1.845,3.848-1.845,6.266c0,1.93,0.474,3.403,1.422,4.42c0.949,1.017,2.184,1.525,3.704,1.525
				c1.298,0,2.474-0.422,3.523-1.268C272.633,458.676,273.397,457.481,273.875,455.934z"/>
			<path fill="#1D1D1B" d="M278.284,457.382c0-2.658,0.781-4.857,2.345-6.6c1.29-1.436,2.981-2.153,5.074-2.153
				c1.641,0,2.963,0.513,3.967,1.539c1.004,1.025,1.505,2.409,1.505,4.151c0,1.564-0.316,3.018-0.948,4.363
				c-0.632,1.346-1.532,2.377-2.697,3.094c-1.167,0.719-2.395,1.078-3.685,1.078c-1.06,0-2.023-0.227-2.89-0.68
				c-0.868-0.453-1.529-1.092-1.986-1.922C278.512,459.424,278.284,458.467,278.284,457.382z M280.603,457.151
				c0,1.281,0.307,2.252,0.922,2.916c0.615,0.662,1.397,0.993,2.345,0.993c0.496,0,0.987-0.1,1.474-0.301
				c0.487-0.201,0.94-0.506,1.358-0.916c0.418-0.411,0.775-0.878,1.069-1.403c0.295-0.525,0.532-1.092,0.711-1.698
				c0.265-0.847,0.397-1.658,0.397-2.435c0-1.229-0.31-2.185-0.929-2.865c-0.619-0.678-1.399-1.018-2.339-1.018
				c-0.726,0-1.389,0.173-1.986,0.52c-0.599,0.345-1.139,0.852-1.622,1.518c-0.482,0.667-0.837,1.442-1.063,2.326
				C280.716,455.672,280.603,456.459,280.603,457.151z"/>
			<path fill="#1D1D1B" d="M292.47,462.546l2.845-13.609h2.102l-0.5,2.371c0.914-0.932,1.769-1.61,2.563-2.037
				c0.794-0.428,1.605-0.642,2.435-0.642c1.103,0,1.968,0.3,2.596,0.896c0.627,0.599,0.941,1.398,0.941,2.397
				c0,0.504-0.111,1.299-0.333,2.384l-1.729,8.24h-2.32l1.808-8.624c0.179-0.837,0.269-1.456,0.269-1.858
				c0-0.453-0.156-0.82-0.468-1.102c-0.312-0.282-0.763-0.424-1.352-0.424c-1.188,0-2.245,0.428-3.172,1.283
				c-0.927,0.854-1.607,2.318-2.044,4.396l-1.319,6.33H292.47z"/>
			<path fill="#1D1D1B" d="M307.283,457.895l2.32-0.141c0,0.666,0.103,1.234,0.308,1.703c0.205,0.472,0.583,0.855,1.133,1.156
				c0.552,0.297,1.194,0.447,1.93,0.447c1.025,0,1.793-0.205,2.306-0.615c0.513-0.411,0.769-0.894,0.769-1.449
				c0-0.401-0.153-0.782-0.461-1.141c-0.316-0.359-1.087-0.8-2.312-1.326c-1.227-0.527-2.01-0.896-2.352-1.109
				c-0.573-0.349-1.004-0.763-1.294-1.236c-0.291-0.475-0.436-1.019-0.436-1.636c0-1.076,0.427-1.998,1.282-2.767
				c0.854-0.769,2.051-1.153,3.588-1.153c1.709,0,3.008,0.395,3.902,1.186c0.893,0.79,1.356,1.83,1.391,3.12l-2.269,0.153
				c-0.035-0.819-0.325-1.47-0.871-1.948c-0.547-0.478-1.321-0.717-2.32-0.717c-0.803,0-1.427,0.184-1.871,0.551
				c-0.444,0.367-0.667,0.765-0.667,1.192c0,0.428,0.193,0.804,0.578,1.128c0.256,0.222,0.917,0.563,1.986,1.025
				c1.776,0.77,2.896,1.375,3.357,1.82c0.734,0.708,1.102,1.572,1.102,2.589c0,0.675-0.206,1.337-0.621,1.985
				c-0.414,0.649-1.046,1.169-1.896,1.558c-0.85,0.388-1.851,0.583-3.004,0.583c-1.572,0-2.909-0.389-4.011-1.166
				C307.744,460.91,307.223,459.646,307.283,457.895z"/>
			<path fill="#1D1D1B" d="M329.479,460.085c-1.632,1.846-3.302,2.769-5.01,2.769c-1.05,0-1.899-0.301-2.544-0.902
				c-0.645-0.603-0.966-1.339-0.966-2.211c0-0.572,0.145-1.556,0.434-2.948l1.642-7.855h2.319l-1.82,8.701
				c-0.154,0.726-0.231,1.29-0.231,1.691c0,0.513,0.156,0.912,0.468,1.199c0.312,0.286,0.771,0.429,1.377,0.429
				c0.65,0,1.284-0.159,1.903-0.475c0.619-0.315,1.153-0.743,1.601-1.282c0.449-0.539,0.814-1.174,1.097-1.909
				c0.188-0.47,0.406-1.294,0.653-2.474l1.231-5.881h2.318l-2.844,13.609h-2.141L329.479,460.085z"/>
			<path fill="#1D1D1B" d="M334.605,462.546l3.922-18.787h2.319l-3.923,18.787H334.605z"/>
			<path fill="#1D1D1B" d="M346.036,460.663l-0.386,1.896c-0.554,0.146-1.092,0.218-1.614,0.218c-0.923,0-1.656-0.227-2.202-0.679
				c-0.411-0.341-0.616-0.807-0.616-1.396c0-0.299,0.111-0.987,0.334-2.063l1.652-7.906h-1.831l0.37-1.794h1.832l0.706-3.345
				l2.652-1.603l-1.039,4.948h2.282l-0.384,1.794h-2.271l-1.575,7.521c-0.195,0.957-0.294,1.528-0.294,1.718
				c0,0.272,0.081,0.482,0.237,0.627c0.159,0.145,0.417,0.217,0.775,0.217C345.176,460.816,345.633,460.765,346.036,460.663z"/>
			<path fill="#1D1D1B" d="M348.316,457.382c0-2.658,0.782-4.857,2.346-6.6c1.289-1.436,2.982-2.153,5.074-2.153
				c1.643,0,2.963,0.513,3.968,1.539c1.002,1.025,1.504,2.409,1.504,4.151c0,1.564-0.316,3.018-0.947,4.363
				c-0.632,1.346-1.533,2.377-2.697,3.094c-1.167,0.719-2.396,1.078-3.685,1.078c-1.061,0-2.022-0.227-2.889-0.68
				c-0.869-0.453-1.531-1.092-1.988-1.922C348.545,459.424,348.316,458.467,348.316,457.382z M350.637,457.151
				c0,1.281,0.306,2.252,0.922,2.916c0.613,0.662,1.396,0.993,2.346,0.993c0.495,0,0.985-0.1,1.473-0.301
				c0.487-0.201,0.939-0.506,1.357-0.916c0.419-0.411,0.774-0.878,1.069-1.403c0.295-0.525,0.534-1.092,0.712-1.698
				c0.266-0.847,0.397-1.658,0.397-2.435c0-1.229-0.31-2.185-0.928-2.865c-0.62-0.678-1.4-1.018-2.34-1.018
				c-0.724,0-1.389,0.173-1.985,0.52c-0.6,0.345-1.141,0.852-1.621,1.518c-0.482,0.667-0.838,1.442-1.065,2.326
				C350.748,455.672,350.637,456.459,350.637,457.151z"/>
			<path fill="#1D1D1B" d="M362.503,462.546l2.845-13.609h2.05l-0.577,2.781c0.7-1.052,1.386-1.829,2.058-2.333
				c0.668-0.504,1.354-0.756,2.055-0.756c0.461,0,1.031,0.167,1.705,0.5l-0.948,2.154c-0.401-0.291-0.842-0.436-1.319-0.436
				c-0.811,0-1.645,0.453-2.5,1.358c-0.855,0.905-1.524,2.534-2.012,4.883l-1.153,5.459H362.503z"/>
			<path fill="#1D1D1B" d="M371.153,462.546l2.845-13.609h2.318l-2.845,13.609H371.153z M374.537,446.387l0.55-2.628h2.307
				l-0.55,2.628H374.537z"/>
			<path fill="#1D1D1B" d="M386.247,460.855c-0.802,0.692-1.575,1.198-2.318,1.519c-0.744,0.32-1.538,0.48-2.384,0.48
				c-1.256,0-2.268-0.369-3.038-1.108c-0.769-0.739-1.152-1.685-1.152-2.838c0-0.759,0.174-1.434,0.519-2.018
				c0.347-0.586,0.805-1.056,1.378-1.41c0.572-0.354,1.272-0.609,2.101-0.763c0.522-0.102,1.513-0.183,2.969-0.243
				c1.455-0.06,2.5-0.213,3.132-0.461c0.18-0.632,0.271-1.157,0.271-1.577c0-0.539-0.198-0.961-0.592-1.269
				c-0.536-0.426-1.324-0.64-2.357-0.64c-0.973,0-1.77,0.214-2.388,0.646c-0.621,0.432-1.07,1.045-1.353,1.838l-2.346-0.204
				c0.479-1.351,1.236-2.385,2.275-3.102c1.036-0.717,2.346-1.077,3.927-1.077c1.684,0,3.017,0.402,3.997,1.205
				c0.753,0.598,1.128,1.376,1.128,2.332c0,0.726-0.106,1.568-0.318,2.525l-0.756,3.382c-0.24,1.077-0.36,1.953-0.36,2.627
				c0,0.428,0.095,1.042,0.283,1.845h-2.346C386.39,462.102,386.3,461.538,386.247,460.855z M387.107,455.652
				c-0.325,0.128-0.674,0.227-1.045,0.295c-0.369,0.068-0.993,0.141-1.864,0.218c-1.351,0.119-2.303,0.271-2.857,0.455
				c-0.556,0.184-0.974,0.476-1.256,0.877s-0.423,0.847-0.423,1.333c0,0.649,0.225,1.184,0.674,1.603
				c0.447,0.418,1.087,0.627,1.916,0.627c0.768,0,1.506-0.203,2.216-0.609c0.709-0.406,1.269-0.972,1.679-1.698
				C386.557,458.027,386.875,456.993,387.107,455.652z"/>
			<path fill="#1D1D1B" d="M399.139,462.546l3.923-18.787h2.512l-3.473,16.66h9.752l-0.45,2.127H399.139z"/>
			<path fill="#1D1D1B" d="M413.965,457.382c0-2.658,0.783-4.857,2.348-6.6c1.29-1.436,2.98-2.153,5.074-2.153
				c1.641,0,2.961,0.513,3.966,1.539c1.004,1.025,1.505,2.409,1.505,4.151c0,1.564-0.314,3.018-0.947,4.363
				s-1.531,2.377-2.698,3.094c-1.166,0.719-2.395,1.078-3.685,1.078c-1.058,0-2.021-0.227-2.889-0.68s-1.528-1.092-1.987-1.922
				C414.196,459.424,413.965,458.467,413.965,457.382z M416.286,457.151c0,1.281,0.307,2.252,0.923,2.916
				c0.616,0.662,1.396,0.993,2.345,0.993c0.495,0,0.987-0.1,1.474-0.301c0.487-0.201,0.938-0.506,1.359-0.916
				c0.418-0.411,0.775-0.878,1.07-1.403c0.294-0.525,0.531-1.092,0.709-1.698c0.267-0.847,0.398-1.658,0.398-2.435
				c0-1.229-0.311-2.185-0.93-2.865c-0.62-0.678-1.397-1.018-2.337-1.018c-0.727,0-1.389,0.173-1.988,0.52
				c-0.599,0.345-1.138,0.852-1.621,1.518c-0.481,0.667-0.838,1.442-1.062,2.326C416.401,455.672,416.286,456.459,416.286,457.151z"
				/>
			<path fill="#1D1D1B" d="M428.024,463.777l2.346,0.218c-0.018,0.53,0.048,0.926,0.192,1.191c0.145,0.265,0.377,0.469,0.693,0.616
				c0.418,0.187,0.959,0.281,1.626,0.281c1.402,0,2.41-0.364,3.025-1.089c0.401-0.487,0.773-1.547,1.113-3.179l0.232-1.102
				c-1.205,1.222-2.488,1.833-3.846,1.833c-1.376,0-2.526-0.506-3.453-1.519c-0.928-1.012-1.391-2.446-1.391-4.299
				c0-1.528,0.364-2.934,1.097-4.215c0.729-1.283,1.599-2.25,2.608-2.903c1.006-0.653,2.045-0.98,3.113-0.98
				c1.784,0,3.16,0.846,4.127,2.537l0.461-2.229h2.128l-2.744,13.134c-0.299,1.445-0.692,2.57-1.179,3.378
				c-0.488,0.807-1.163,1.433-2.03,1.877c-0.868,0.444-1.869,0.667-3.005,0.667c-1.094,0-2.036-0.141-2.826-0.422
				c-0.791-0.282-1.381-0.695-1.77-1.237c-0.389-0.542-0.583-1.164-0.583-1.863C427.96,464.255,427.983,464.024,428.024,463.777z
				 M430.922,456.523c0,0.931,0.09,1.633,0.268,2.103c0.256,0.658,0.621,1.159,1.097,1.506c0.474,0.345,1,0.518,1.582,0.518
				c0.761,0,1.517-0.267,2.268-0.801c0.751-0.533,1.36-1.36,1.826-2.479s0.698-2.187,0.698-3.204c0-1.12-0.311-2.011-0.928-2.672
				c-0.621-0.662-1.387-0.994-2.302-0.994c-0.563,0-1.111,0.152-1.64,0.455c-0.529,0.303-1.023,0.764-1.48,1.384
				c-0.456,0.62-0.802,1.361-1.039,2.224C431.037,455.425,430.922,456.078,430.922,456.523z"/>
			<path fill="#1D1D1B" d="M443.478,462.546l2.845-13.609h2.321l-2.845,13.609H443.478z M445.71,447.284l2.407-3.525h2.922
				l-3.408,3.525H445.71z"/>
			<path fill="#1D1D1B" d="M450.257,457.895l2.321-0.141c0,0.666,0.102,1.234,0.307,1.703c0.205,0.472,0.585,0.855,1.135,1.156
				c0.551,0.297,1.193,0.447,1.928,0.447c1.026,0,1.795-0.205,2.307-0.615c0.515-0.411,0.77-0.894,0.77-1.449
				c0-0.401-0.154-0.782-0.461-1.141c-0.316-0.359-1.087-0.8-2.313-1.326c-1.228-0.527-2.01-0.896-2.353-1.109
				c-0.572-0.349-1.002-0.763-1.294-1.236c-0.29-0.475-0.436-1.019-0.436-1.636c0-1.076,0.428-1.998,1.282-2.767
				c0.854-0.769,2.051-1.153,3.587-1.153c1.71,0,3.01,0.395,3.902,1.186c0.894,0.79,1.357,1.83,1.392,3.12l-2.269,0.153
				c-0.035-0.819-0.325-1.47-0.871-1.948c-0.548-0.478-1.321-0.717-2.321-0.717c-0.801,0-1.425,0.184-1.869,0.551
				s-0.666,0.765-0.666,1.192c0,0.428,0.19,0.804,0.577,1.128c0.256,0.222,0.917,0.563,1.984,1.025
				c1.778,0.77,2.896,1.375,3.357,1.82c0.734,0.708,1.102,1.572,1.102,2.589c0,0.675-0.205,1.337-0.621,1.985
				c-0.413,0.649-1.046,1.169-1.896,1.558c-0.851,0.388-1.853,0.583-3.004,0.583c-1.572,0-2.91-0.389-4.012-1.166
				C450.719,460.91,450.199,459.646,450.257,457.895z"/>
			<path fill="#1D1D1B" d="M468.582,460.663l-0.383,1.896c-0.556,0.146-1.095,0.218-1.616,0.218c-0.923,0-1.657-0.227-2.203-0.679
				c-0.41-0.341-0.615-0.807-0.615-1.396c0-0.299,0.111-0.987,0.333-2.063l1.654-7.906h-1.833l0.372-1.794h1.831l0.705-3.345
				l2.654-1.603l-1.039,4.948h2.28l-0.384,1.794h-2.269l-1.577,7.521c-0.195,0.957-0.294,1.528-0.294,1.718
				c0,0.272,0.079,0.482,0.236,0.627c0.159,0.145,0.418,0.217,0.775,0.217C467.726,460.816,468.182,460.765,468.582,460.663z"/>
			<path fill="#1D1D1B" d="M470.365,462.546l2.846-13.609h2.317l-2.845,13.609H470.365z M473.749,446.387l0.551-2.628h2.307
				l-0.552,2.628H473.749z"/>
			<path fill="#1D1D1B" d="M485.679,457.587l2.319,0.244c-0.583,1.7-1.408,2.962-2.48,3.787c-1.072,0.823-2.292,1.236-3.659,1.236
				c-1.478,0-2.676-0.478-3.594-1.436c-0.917-0.957-1.377-2.294-1.377-4.011c0-1.487,0.295-2.946,0.885-4.382
				c0.589-1.435,1.433-2.526,2.53-3.273c1.097-0.747,2.351-1.122,3.761-1.122c1.462,0,2.618,0.413,3.474,1.237
				c0.854,0.825,1.282,1.916,1.282,3.275l-2.283,0.153c-0.007-0.863-0.258-1.538-0.748-2.025c-0.493-0.487-1.14-0.731-1.941-0.731
				c-0.933,0-1.739,0.295-2.423,0.886c-0.684,0.589-1.22,1.484-1.608,2.684c-0.389,1.201-0.582,2.356-0.582,3.466
				c0,1.163,0.256,2.034,0.769,2.614c0.512,0.582,1.145,0.872,1.895,0.872c0.754,0,1.474-0.287,2.16-0.858
				C484.744,459.629,485.285,458.757,485.679,457.587z"/>
			<path fill="#1D1D1B" d="M498.584,460.855c-0.805,0.692-1.578,1.198-2.322,1.519c-0.743,0.32-1.539,0.48-2.384,0.48
				c-1.255,0-2.267-0.369-3.036-1.108c-0.77-0.739-1.153-1.685-1.153-2.838c0-0.759,0.174-1.434,0.52-2.018
				c0.345-0.586,0.804-1.056,1.376-1.41s1.274-0.609,2.104-0.763c0.519-0.102,1.51-0.183,2.966-0.243
				c1.456-0.06,2.502-0.213,3.132-0.461c0.182-0.632,0.271-1.157,0.271-1.577c0-0.539-0.198-0.961-0.589-1.269
				c-0.539-0.426-1.326-0.64-2.36-0.64c-0.973,0-1.771,0.214-2.389,0.646c-0.62,0.432-1.069,1.045-1.353,1.838l-2.345-0.204
				c0.478-1.351,1.236-2.385,2.274-3.102c1.039-0.717,2.348-1.077,3.928-1.077c1.684,0,3.016,0.402,3.999,1.205
				c0.751,0.598,1.128,1.376,1.128,2.332c0,0.726-0.107,1.568-0.321,2.525l-0.756,3.382c-0.239,1.077-0.359,1.953-0.359,2.627
				c0,0.428,0.094,1.042,0.282,1.845h-2.346C498.724,462.102,498.634,461.538,498.584,460.855z M499.44,455.652
				c-0.323,0.128-0.67,0.227-1.042,0.295c-0.372,0.068-0.995,0.141-1.864,0.218c-1.351,0.119-2.305,0.271-2.86,0.455
				s-0.973,0.476-1.255,0.877c-0.281,0.402-0.423,0.847-0.423,1.333c0,0.649,0.224,1.184,0.674,1.603
				c0.448,0.418,1.087,0.627,1.915,0.627c0.768,0,1.507-0.203,2.217-0.609s1.269-0.972,1.678-1.698
				C498.89,458.027,499.211,456.993,499.44,455.652z"/>
			<path fill="#1D1D1B" d="M521.29,457.919l2.256,0.231c-0.323,1.119-1.07,2.183-2.236,3.19c-1.167,1.009-2.556,1.513-4.172,1.513
				c-1.006,0-1.932-0.233-2.774-0.699c-0.841-0.465-1.482-1.142-1.922-2.031c-0.439-0.887-0.659-1.901-0.659-3.037
				c0-1.487,0.343-2.928,1.031-4.325c0.688-1.397,1.578-2.436,2.673-3.115c1.092-0.679,2.274-1.019,3.548-1.019
				c1.623,0,2.92,0.504,3.891,1.512c0.969,1.008,1.454,2.384,1.454,4.126c0,0.667-0.061,1.35-0.179,2.051h-10.023
				c-0.033,0.266-0.051,0.504-0.051,0.717c0,1.273,0.293,2.245,0.88,2.916c0.585,0.671,1.299,1.007,2.145,1.007
				c0.795,0,1.578-0.262,2.346-0.782C520.266,459.654,520.863,458.903,521.29,457.919z M514.549,454.55h7.64
				c0.008-0.239,0.012-0.411,0.012-0.513c0-1.163-0.29-2.051-0.871-2.671c-0.58-0.619-1.329-0.93-2.242-0.93
				c-0.992,0-1.896,0.342-2.712,1.025C515.56,452.146,514.95,453.174,514.549,454.55z"/>
			<path fill="#1D1D1B" d="M533.81,462.546l3.935-18.787h2.5l-3.923,18.787H533.81z"/>
			<path fill="#1D1D1B" d="M540.473,462.546l2.846-13.609h2.103l-0.499,2.371c0.912-0.932,1.768-1.61,2.562-2.037
				c0.796-0.428,1.606-0.642,2.435-0.642c1.102,0,1.969,0.3,2.597,0.896c0.628,0.599,0.941,1.398,0.941,2.397
				c0,0.504-0.11,1.299-0.333,2.384l-1.732,8.24h-2.317l1.806-8.624c0.18-0.837,0.269-1.456,0.269-1.858
				c0-0.453-0.155-0.82-0.466-1.102c-0.312-0.282-0.764-0.424-1.353-0.424c-1.188,0-2.246,0.428-3.171,1.283
				c-0.927,0.854-1.608,2.318-2.046,4.396l-1.318,6.33H540.473z"/>
			<path fill="#1D1D1B" d="M564.245,460.573c-1.323,1.52-2.708,2.28-4.151,2.28c-1.29,0-2.365-0.477-3.223-1.43
				c-0.859-0.951-1.289-2.333-1.289-4.145c0-1.658,0.341-3.172,1.019-4.543c0.679-1.371,1.529-2.398,2.551-3.082
				s2.045-1.025,3.069-1.025c1.691,0,2.969,0.816,3.832,2.448l1.537-7.318h2.307l-3.92,18.787h-2.14L564.245,460.573z
				 M557.891,456.844c0,0.948,0.092,1.696,0.28,2.243c0.188,0.547,0.51,1,0.961,1.364c0.454,0.363,0.995,0.545,1.628,0.545
				c1.051,0,2.004-0.547,2.857-1.64c1.145-1.453,1.717-3.247,1.717-5.383c0-1.075-0.279-1.917-0.845-2.523
				c-0.563-0.606-1.272-0.911-2.128-0.911c-0.557,0-1.061,0.125-1.517,0.373c-0.459,0.247-0.911,0.669-1.36,1.262
				s-0.826,1.347-1.132,2.261C558.043,455.349,557.891,456.151,557.891,456.844z"/>
			<path fill="#1D1D1B" d="M578.958,460.085c-1.633,1.846-3.304,2.769-5.012,2.769c-1.051,0-1.898-0.301-2.543-0.902
				c-0.645-0.603-0.969-1.339-0.969-2.211c0-0.572,0.146-1.556,0.435-2.948l1.643-7.855h2.318l-1.818,8.701
				c-0.155,0.726-0.232,1.29-0.232,1.691c0,0.513,0.157,0.912,0.469,1.199c0.312,0.286,0.771,0.429,1.377,0.429
				c0.649,0,1.285-0.159,1.903-0.475c0.621-0.315,1.154-0.743,1.601-1.282c0.449-0.539,0.814-1.174,1.097-1.909
				c0.188-0.47,0.406-1.294,0.654-2.474l1.229-5.881h2.318l-2.842,13.609h-2.143L578.958,460.085z"/>
			<path fill="#1D1D1B" d="M584.481,457.895l2.319-0.141c0,0.666,0.104,1.234,0.306,1.703c0.207,0.472,0.585,0.855,1.136,1.156
				c0.551,0.297,1.193,0.447,1.93,0.447c1.024,0,1.792-0.205,2.307-0.615c0.512-0.411,0.768-0.894,0.768-1.449
				c0-0.401-0.154-0.782-0.462-1.141c-0.314-0.359-1.086-0.8-2.313-1.326c-1.224-0.527-2.01-0.896-2.349-1.109
				c-0.573-0.349-1.005-0.763-1.295-1.236c-0.293-0.475-0.438-1.019-0.438-1.636c0-1.076,0.428-1.998,1.282-2.767
				c0.855-0.769,2.051-1.153,3.589-1.153c1.707,0,3.01,0.395,3.9,1.186c0.895,0.79,1.357,1.83,1.392,3.12l-2.268,0.153
				c-0.034-0.819-0.326-1.47-0.872-1.948c-0.546-0.478-1.321-0.717-2.318-0.717c-0.805,0-1.427,0.184-1.872,0.551
				c-0.444,0.367-0.667,0.765-0.667,1.192c0,0.428,0.193,0.804,0.578,1.128c0.256,0.222,0.918,0.563,1.985,1.025
				c1.776,0.77,2.895,1.375,3.356,1.82c0.736,0.708,1.104,1.572,1.104,2.589c0,0.675-0.207,1.337-0.623,1.985
				c-0.413,0.649-1.046,1.169-1.896,1.558c-0.851,0.388-1.854,0.583-3.005,0.583c-1.572,0-2.91-0.389-4.012-1.166
				C584.943,460.91,584.421,459.646,584.481,457.895z"/>
			<path fill="#1D1D1B" d="M602.805,460.663l-0.384,1.896c-0.556,0.146-1.095,0.218-1.614,0.218c-0.923,0-1.659-0.227-2.205-0.679
				c-0.41-0.341-0.615-0.807-0.615-1.396c0-0.299,0.111-0.987,0.333-2.063l1.654-7.906h-1.832l0.371-1.794h1.832l0.704-3.345
				l2.654-1.603l-1.039,4.948h2.283l-0.387,1.794h-2.269l-1.575,7.521c-0.197,0.957-0.297,1.528-0.297,1.718
				c0,0.272,0.08,0.482,0.24,0.627c0.156,0.145,0.415,0.217,0.775,0.217C601.947,460.816,602.404,460.765,602.805,460.663z"/>
			<path fill="#1D1D1B" d="M604.676,462.546l2.845-13.609h2.051l-0.577,2.781c0.7-1.052,1.387-1.829,2.058-2.333
				c0.671-0.504,1.356-0.756,2.058-0.756c0.462,0,1.029,0.167,1.702,0.5l-0.945,2.154c-0.404-0.291-0.844-0.436-1.321-0.436
				c-0.812,0-1.646,0.453-2.5,1.358c-0.854,0.905-1.524,2.534-2.012,4.883l-1.152,5.459H604.676z"/>
			<path fill="#1D1D1B" d="M613.327,462.546l2.845-13.609h2.318l-2.845,13.609H613.327z M616.71,446.387l0.552-2.628h2.306
				l-0.551,2.628H616.71z"/>
			<path fill="#1D1D1B" d="M628.421,460.855c-0.802,0.692-1.574,1.198-2.317,1.519c-0.744,0.32-1.539,0.48-2.385,0.48
				c-1.256,0-2.268-0.369-3.038-1.108c-0.769-0.739-1.152-1.685-1.152-2.838c0-0.759,0.175-1.434,0.52-2.018
				c0.346-0.586,0.805-1.056,1.377-1.41s1.272-0.609,2.101-0.763c0.521-0.102,1.513-0.183,2.969-0.243
				c1.456-0.06,2.499-0.213,3.132-0.461c0.18-0.632,0.269-1.157,0.269-1.577c0-0.539-0.196-0.961-0.59-1.269
				c-0.536-0.426-1.323-0.64-2.356-0.64c-0.974,0-1.771,0.214-2.392,0.646c-0.617,0.432-1.07,1.045-1.35,1.838l-2.346-0.204
				c0.479-1.351,1.237-2.385,2.273-3.102c1.038-0.717,2.348-1.077,3.929-1.077c1.684,0,3.015,0.402,3.997,1.205
				c0.754,0.598,1.128,1.376,1.128,2.332c0,0.726-0.106,1.568-0.318,2.525l-0.756,3.382c-0.242,1.077-0.36,1.953-0.36,2.627
				c0,0.428,0.095,1.042,0.283,1.845h-2.346C628.564,462.102,628.472,461.538,628.421,460.855z M629.281,455.652
				c-0.326,0.128-0.674,0.227-1.046,0.295c-0.372,0.068-0.993,0.141-1.864,0.218c-1.351,0.119-2.302,0.271-2.857,0.455
				c-0.555,0.184-0.974,0.476-1.256,0.877s-0.423,0.847-0.423,1.333c0,0.649,0.225,1.184,0.671,1.603
				c0.45,0.418,1.09,0.627,1.918,0.627c0.769,0,1.508-0.203,2.217-0.609s1.268-0.972,1.679-1.698
				C628.731,458.027,629.049,456.993,629.281,455.652z"/>
			<path fill="#1D1D1B" d="M633.664,462.546l3.92-18.787h2.321l-3.923,18.787H633.664z"/>
		</g>
	</g>
	<g>
		<path fill="#1D1D1B" d="M259.519,425.884l2.428-0.227l-0.026,0.645c0,0.716,0.164,1.372,0.493,1.966
			c0.33,0.594,0.873,1.053,1.631,1.378s1.66,0.487,2.706,0.487c1.483,0,2.614-0.324,3.394-0.973c0.78-0.649,1.169-1.391,1.169-2.226
			c0-0.581-0.207-1.113-0.619-1.593c-0.422-0.472-1.572-1.112-3.452-1.921c-1.458-0.633-2.453-1.117-2.984-1.454
			c-0.834-0.548-1.45-1.145-1.846-1.79c-0.396-0.645-0.594-1.379-0.594-2.206c0-0.952,0.261-1.812,0.784-2.578
			s1.288-1.354,2.295-1.758s2.143-0.606,3.407-0.606c1.509,0,2.782,0.252,3.818,0.758c1.037,0.506,1.789,1.179,2.256,2.022
			c0.468,0.843,0.702,1.648,0.702,2.415c0,0.076-0.005,0.202-0.013,0.379l-2.39,0.189c0-0.523-0.047-0.931-0.139-1.227
			c-0.169-0.513-0.43-0.948-0.784-1.302c-0.354-0.354-0.841-0.639-1.46-0.854c-0.619-0.215-1.312-0.322-2.08-0.322
			c-1.348,0-2.397,0.304-3.147,0.91c-0.573,0.464-0.859,1.08-0.859,1.847c0,0.455,0.118,0.861,0.354,1.219
			c0.236,0.359,0.662,0.71,1.277,1.056c0.438,0.245,1.479,0.729,3.123,1.454c1.332,0.59,2.25,1.054,2.756,1.392
			c0.674,0.446,1.192,0.988,1.555,1.624s0.544,1.36,0.544,2.168c0,1.002-0.306,1.927-0.917,2.775
			c-0.611,0.847-1.456,1.502-2.535,1.966c-1.079,0.463-2.314,0.695-3.704,0.695c-2.099,0-3.812-0.458-5.14-1.372
			C260.197,429.907,259.528,428.261,259.519,425.884z"/>
		<path fill="#1D1D1B" d="M280.848,431.877l3.426-16.423h-6.081l0.442-2.112h14.59l-0.442,2.112h-6.031l-3.425,16.423H280.848z"/>
		<path fill="#1D1D1B" d="M291.998,431.877l3.881-18.535h7.775c1.534,0,2.697,0.129,3.489,0.387s1.415,0.739,1.865,1.448
			c0.451,0.708,0.676,1.601,0.676,2.679c0,1.51-0.493,2.761-1.479,3.756c-0.985,0.993-2.579,1.639-4.779,1.935
			c0.674,0.496,1.184,0.985,1.53,1.466c0.775,1.086,1.399,2.212,1.871,3.375l1.417,3.49h-2.769l-1.327-3.451
			c-0.48-1.248-1.029-2.327-1.644-3.236c-0.421-0.633-0.851-1.048-1.29-1.246c-0.439-0.198-1.151-0.297-2.137-0.297h-2.882
			l-1.719,8.23H291.998z M296.613,421.637h3.426c1.584,0,2.617-0.022,3.098-0.064c0.935-0.091,1.702-0.303,2.301-0.631
			c0.598-0.329,1.062-0.771,1.39-1.328c0.329-0.555,0.493-1.155,0.493-1.794c0-0.54-0.122-1.009-0.367-1.411
			c-0.245-0.4-0.564-0.671-0.961-0.815c-0.396-0.144-1.07-0.215-2.022-0.215h-6.043L296.613,421.637z"/>
		<path fill="#1D1D1B" d="M308.965,431.877l10.506-18.535h2.921l3.059,18.535h-2.402l-0.898-5.335h-7.497l-2.971,5.335H308.965z
			 M315.717,424.633h6.132l-0.723-4.653c-0.278-1.847-0.45-3.384-0.518-4.614c-0.422,1.062-1.036,2.322-1.847,3.78L315.717,424.633z
			"/>
		<path fill="#1D1D1B" d="M328.231,431.877l3.882-18.535h2.466l-3.87,18.535H328.231z"/>
		<path fill="#1D1D1B" d="M344.553,424.57l0.442-2.099h8.116l-1.579,7.547c-1.021,0.64-2.183,1.163-3.49,1.567
			c-1.306,0.405-2.591,0.607-3.854,0.607c-2.698,0-4.712-0.814-6.045-2.44c-1.121-1.373-1.681-3.14-1.681-5.298
			c0-2.224,0.491-4.249,1.474-6.073c0.98-1.825,2.219-3.174,3.717-4.047c1.495-0.872,3.159-1.308,4.987-1.308
			c1.313,0,2.494,0.238,3.541,0.713c1.043,0.477,1.845,1.113,2.401,1.909c0.558,0.797,0.957,1.836,1.202,3.117l-2.429,0.266
			c-0.261-1.273-0.802-2.249-1.623-2.927c-0.822-0.679-1.879-1.018-3.168-1.018c-1.338,0-2.59,0.365-3.753,1.094
			c-1.164,0.729-2.092,1.83-2.787,3.3c-0.696,1.471-1.043,3.141-1.043,5.013c0,1.862,0.459,3.27,1.376,4.223
			c0.921,0.952,2.188,1.429,3.807,1.429c1.608,0,3.342-0.531,5.195-1.594l0.835-3.981H344.553z"/>
		<path fill="#1D1D1B" d="M355.172,431.877l3.881-18.535h2.466l-1.606,7.701h9.609l1.606-7.701h2.478l-3.869,18.535h-2.478
			l1.822-8.737h-9.598l-1.833,8.737H355.172z"/>
		<path fill="#1D1D1B" d="M378.664,431.877l3.424-16.423h-6.081l0.441-2.112h14.59l-0.441,2.112h-6.03l-3.425,16.423H378.664z"/>
		<path fill="#1D1D1B" d="M396.932,431.877l3.869-18.535h3.045l1.872,12.012c0.243,1.576,0.406,3.089,0.481,4.538
			c0.514-1.248,1.373-2.937,2.578-5.07l6.499-11.48h3.097l-3.869,18.535h-2.439l1.935-9.015c0.446-2.082,1.087-4.416,1.922-7.003
			c-0.53,1.205-1.188,2.503-1.973,3.894l-6.902,12.124h-2.391l-1.857-11.883c-0.17-1.088-0.29-2.356-0.367-3.806
			c-0.21,1.626-0.418,2.916-0.618,3.869l-2.466,11.82H396.932z"/>
		<path fill="#1D1D1B" d="M416.844,431.877l10.506-18.535h2.92l3.06,18.535h-2.403l-0.895-5.335h-7.5l-2.97,5.335H416.844z
			 M423.595,424.633h6.132l-0.72-4.653c-0.28-1.847-0.452-3.384-0.52-4.614c-0.422,1.062-1.036,2.322-1.845,3.78L423.595,424.633z"
			/>
		<path fill="#1D1D1B" d="M435.898,431.877l3.881-18.535h2.399l3.123,6.954c0.954,2.124,1.708,3.912,2.264,5.361
			c0.321,0.843,0.69,1.98,1.113,3.414c0.227-1.559,0.515-3.17,0.859-4.83l2.275-10.898h2.415l-3.869,18.535h-2.451l-4.604-10.708
			c-0.816-1.887-1.454-3.553-1.908-4.993c-0.128,1.205-0.372,2.685-0.733,4.438l-2.353,11.264H435.898z"/>
		<path fill="#1D1D1B" d="M458.463,413.342h2.479l-2.377,11.392c-0.192,0.943-0.291,1.644-0.291,2.099
			c0,0.994,0.394,1.794,1.175,2.402c0.785,0.606,1.771,0.911,2.959,0.911c0.944,0,1.823-0.217,2.638-0.652
			c0.812-0.434,1.455-1.072,1.927-1.915s0.898-2.187,1.278-4.032l2.135-10.204h2.477l-2.263,10.873
			c-0.385,1.855-0.895,3.323-1.528,4.406c-0.633,1.083-1.509,1.952-2.629,2.605c-1.122,0.653-2.424,0.979-3.906,0.979
			c-1.4,0-2.61-0.232-3.635-0.695c-1.024-0.463-1.792-1.104-2.302-1.921c-0.509-0.818-0.765-1.745-0.765-2.781
			c0-0.65,0.173-1.766,0.519-3.351L458.463,413.342z"/>
		<path fill="#1D1D1B" d="M473.205,431.877l3.869-18.535h12.046l-0.441,2.112h-9.57l-1.225,5.904h9.747l-0.444,2.112h-9.748
			l-1.756,8.407H473.205z"/>
		<path fill="#1D1D1B" d="M485.408,431.877l10.509-18.535h2.92l3.06,18.535h-2.402l-0.899-5.335h-7.496l-2.971,5.335H485.408z
			 M492.161,424.633h6.133l-0.724-4.653c-0.277-1.847-0.448-3.384-0.517-4.614c-0.422,1.062-1.035,2.322-1.847,3.78L492.161,424.633
			z"/>
		<path fill="#1D1D1B" d="M518.812,425.354l2.454,0.34c-0.775,2.141-1.906,3.759-3.389,4.855c-1.485,1.095-3.149,1.644-4.994,1.644
			c-2.251,0-4.035-0.687-5.354-2.061c-1.318-1.373-1.978-3.342-1.978-5.904c0-3.338,1.002-6.098,3.01-8.282
			c1.786-1.946,4.006-2.919,6.66-2.919c1.967,0,3.556,0.527,4.774,1.58c1.218,1.054,1.923,2.47,2.115,4.248l-2.313,0.215
			c-0.244-1.34-0.745-2.34-1.509-3.002c-0.763-0.662-1.746-0.993-2.951-0.993c-2.269,0-4.101,1.007-5.502,3.021
			c-1.213,1.737-1.817,3.798-1.817,6.183c0,1.904,0.465,3.358,1.402,4.361c0.935,1.003,2.151,1.505,3.653,1.505
			c1.281,0,2.44-0.418,3.476-1.252C517.585,428.058,518.341,426.879,518.812,425.354z"/>
		<path fill="#1D1D1B" d="M527.777,431.877l3.425-16.423h-6.08l0.441-2.112h14.59l-0.442,2.112h-6.03l-3.425,16.423H527.777z"/>
		<path fill="#1D1D1B" d="M542.845,413.342h2.478l-2.376,11.392c-0.193,0.943-0.29,1.644-0.29,2.099
			c0,0.994,0.392,1.794,1.176,2.402c0.783,0.606,1.771,0.911,2.959,0.911c0.943,0,1.82-0.217,2.635-0.652
			c0.813-0.434,1.456-1.072,1.93-1.915c0.471-0.843,0.896-2.187,1.275-4.032l2.137-10.204h2.479l-2.263,10.873
			c-0.389,1.855-0.898,3.323-1.531,4.406c-0.631,1.083-1.508,1.952-2.628,2.605c-1.123,0.653-2.425,0.979-3.908,0.979
			c-1.397,0-2.61-0.232-3.635-0.695c-1.023-0.463-1.792-1.104-2.301-1.921c-0.51-0.818-0.764-1.745-0.764-2.781
			c0-0.65,0.171-1.766,0.517-3.351L542.845,413.342z"/>
		<path fill="#1D1D1B" d="M557.625,431.877l3.881-18.535h7.774c1.536,0,2.697,0.129,3.49,0.387c0.792,0.257,1.415,0.739,1.864,1.448
			c0.451,0.708,0.676,1.601,0.676,2.679c0,1.51-0.492,2.761-1.478,3.756c-0.985,0.993-2.58,1.639-4.78,1.935
			c0.675,0.496,1.185,0.985,1.532,1.466c0.774,1.086,1.397,2.212,1.869,3.375l1.417,3.49h-2.77l-1.326-3.451
			c-0.48-1.248-1.028-2.327-1.645-3.236c-0.42-0.633-0.851-1.048-1.29-1.246c-0.438-0.198-1.149-0.297-2.138-0.297h-2.881
			l-1.72,8.23H557.625z M562.24,421.637h3.425c1.584,0,2.617-0.022,3.099-0.064c0.935-0.091,1.702-0.303,2.301-0.631
			c0.598-0.329,1.061-0.771,1.39-1.328c0.327-0.555,0.495-1.155,0.495-1.794c0-0.54-0.124-1.009-0.367-1.411
			c-0.247-0.4-0.565-0.671-0.961-0.815c-0.396-0.144-1.071-0.215-2.025-0.215h-6.042L562.24,421.637z"/>
		<path fill="#1D1D1B" d="M576.273,431.877l3.881-18.535h13.377l-0.441,2.112H582.19l-1.213,5.765h10.619l-0.441,2.112h-10.622
			l-1.34,6.447h11.669l-0.441,2.099H576.273z"/>
	</g>
</g>
</svg>
